<?xml version="1.0" standalone="no"?>
<!DOCTYPE svg PUBLIC "-//W3C//DTD SVG 20010904//EN"
 "http://www.w3.org/TR/2001/REC-SVG-20010904/DTD/svg10.dtd">
<svg version="1.0" xmlns="http://www.w3.org/2000/svg"
 width="1280.000000pt" height="1280.000000pt" viewBox="0 0 1280.000000 1280.000000"
 preserveAspectRatio="xMidYMid meet">

<g transform="translate(0.000000,1280.000000) scale(0.100000,-0.100000)"
fill="#000000" stroke="none">
<path d="M3396 7389 c-108 -26 -204 -80 -292 -162 -203 -190 -291 -411 -301
-762 -13 -428 96 -734 327 -921 129 -104 241 -139 440 -138 214 0 305 36 441
173 67 67 95 105 123 164 90 187 130 514 84 695 -6 26 -27 61 -53 90 l-43 47
-337 -2 c-408 -1 -377 10 -383 -143 -5 -112 8 -183 40 -217 21 -22 28 -23 195
-23 149 0 174 -2 180 -16 11 -29 -26 -178 -62 -251 -33 -66 -40 -74 -92 -100
-82 -39 -141 -37 -238 11 -84 41 -114 74 -169 184 -108 215 -106 520 4 747 54
112 96 157 188 202 65 33 85 38 141 38 83 -1 150 -33 205 -100 l39 -47 66 4
c85 6 154 37 214 96 40 40 47 52 47 86 0 60 -36 122 -114 198 -83 81 -176 131
-284 153 -102 21 -268 18 -366 -6z"/>
<path d="M6528 7400 c-238 -40 -468 -222 -592 -468 -129 -255 -152 -655 -54
-947 89 -267 303 -485 553 -565 98 -32 358 -40 470 -15 204 45 414 222 522
440 93 187 136 443 114 681 -17 173 -50 296 -117 434 -53 107 -64 122 -168
226 -94 94 -124 116 -196 151 -47 23 -120 49 -162 57 -82 17 -286 20 -370 6z
m327 -453 c91 -44 144 -98 194 -201 61 -123 75 -190 76 -341 0 -150 -20 -238
-83 -364 -113 -227 -337 -302 -557 -187 -86 44 -145 107 -194 207 -45 92 -81
235 -81 329 0 159 79 371 175 466 131 131 311 166 470 91z"/>
<path d="M9405 7399 c-33 -5 -71 -17 -85 -27 l-25 -19 -5 -214 c-3 -118 -9
-220 -13 -226 -6 -9 -41 -13 -116 -13 -90 0 -110 -3 -123 -17 -52 -59 -50
-300 3 -367 19 -24 26 -26 127 -28 l107 -3 3 -499 2 -500 23 -24 c35 -39 79
-52 172 -52 108 0 166 14 199 49 l26 27 2 499 3 500 105 3 c113 3 134 12 166
74 18 35 18 209 0 261 -26 72 -35 76 -165 79 l-116 3 -3 226 c-3 261 0 253
-98 269 -68 11 -105 11 -189 -1z"/>
<path d="M4846 6924 c-109 -26 -183 -71 -282 -169 -79 -78 -98 -104 -137 -185
-61 -127 -77 -207 -77 -375 0 -168 17 -248 76 -373 73 -152 211 -276 371 -333
82 -30 320 -39 413 -15 112 28 168 62 266 160 151 152 202 280 211 525 6 164
-4 244 -47 363 -37 102 -84 170 -178 260 -128 123 -227 159 -432 157 -71 0
-150 -7 -184 -15z m291 -421 c71 -36 114 -95 144 -196 31 -100 23 -195 -25
-293 -52 -104 -127 -154 -237 -157 -82 -2 -181 49 -227 117 -47 71 -76 174
-69 246 26 249 222 383 414 283z"/>
<path d="M7746 6926 c-22 -8 -50 -25 -62 -38 -22 -22 -23 -32 -29 -243 -11
-354 14 -718 61 -875 42 -142 146 -270 252 -310 51 -19 71 -21 187 -17 126 4
194 19 327 72 13 5 17 0 20 -21 6 -48 46 -68 151 -72 117 -5 196 10 228 44
l24 26 3 681 3 682 -34 33 c-39 37 -84 51 -169 52 -81 0 -154 -18 -188 -47
l-30 -25 0 -453 c0 -525 12 -470 -117 -525 -184 -77 -266 -43 -308 131 -22 89
-29 359 -17 619 12 239 11 244 -51 277 -44 23 -198 29 -251 9z"/>
</g>
</svg>
