<?xml version="1.0" standalone="no"?>
<!DOCTYPE svg PUBLIC "-//W3C//DTD SVG 20010904//EN"
 "http://www.w3.org/TR/2001/REC-SVG-20010904/DTD/svg10.dtd">
<svg version="1.0" xmlns="http://www.w3.org/2000/svg"
 width="577.000000pt" height="433.000000pt" viewBox="0 0 577.000000 433.000000"
 preserveAspectRatio="xMidYMid meet">

<g transform="translate(0.000000,433.000000) scale(0.100000,-0.100000)"
fill="#000000" stroke="none">
<path d="M2945 2334 c-170 -74 -202 -76 -288 -22 -67 43 -110 41 -217 -7 -50
-23 -106 -40 -136 -43 -46 -4 -54 -1 -87 27 -68 60 -118 60 -247 -2 -48 -23
-79 -32 -120 -32 -48 0 -61 4 -102 37 -80 62 -115 60 -293 -16 -72 -31 -119
-33 -162 -6 l-33 20 0 -60 c0 -57 2 -61 33 -80 43 -27 90 -25 162 6 175 76
211 78 297 13 69 -51 103 -51 217 0 139 63 177 63 248 1 48 -43 93 -40 212 12
120 53 158 55 224 11 85 -56 117 -54 292 21 72 31 119 33 163 6 l32 -20 0 60
c0 57 -2 61 -32 80 -44 27 -91 25 -163 -6z"/>
<path d="M1318 2095 c-54 -30 -65 -160 -18 -210 19 -21 33 -25 77 -25 l53 0 0
60 c0 45 -3 60 -14 60 -9 0 -16 -12 -18 -32 -3 -38 -27 -48 -52 -23 -25 25
-31 65 -14 94 11 21 21 26 50 25 31 -1 38 3 43 24 4 16 1 28 -7 33 -20 13 -70
10 -100 -6z"/>
<path d="M1680 2082 c-50 -50 -52 -151 -5 -198 17 -17 35 -24 63 -24 54 0 82
25 92 81 24 129 -72 219 -150 141z m88 -44 c27 -27 5 -128 -29 -128 -20 0 -39
35 -39 74 0 44 13 66 40 66 9 0 21 -5 28 -12z"/>
<path d="M2180 1986 l0 -126 56 0 c75 0 94 12 94 57 0 20 -8 45 -17 55 -13 14
-14 21 -5 30 17 17 15 73 -4 89 -8 7 -40 14 -70 17 l-54 4 0 -126z m90 59 c16
-20 5 -45 -20 -45 -16 0 -20 7 -20 30 0 33 19 40 40 15z m4 -98 c9 -15 7 -21
-8 -32 -25 -19 -36 -11 -36 26 0 23 4 30 16 27 9 -2 22 -11 28 -21z"/>
<path d="M2070 2050 c0 -11 -4 -20 -10 -20 -5 0 -10 -9 -10 -20 0 -11 5 -20
10 -20 6 0 10 -28 10 -65 0 -63 1 -65 25 -65 24 0 25 2 25 64 0 48 4 65 15 70
22 8 18 36 -5 36 -13 0 -20 7 -20 20 0 13 -7 20 -20 20 -13 0 -20 -7 -20 -20z"/>
<path d="M1485 1996 c-8 -19 -15 -42 -15 -51 0 -9 7 -32 15 -51 14 -33 17 -35
57 -32 40 3 44 5 57 44 13 36 13 47 0 80 -14 36 -18 39 -57 42 -40 3 -43 1
-57 -32z m75 -31 c12 -31 3 -55 -20 -55 -21 0 -30 27 -19 58 11 29 27 28 39
-3z"/>
<path d="M1873 1955 c3 -41 8 -79 12 -85 4 -6 33 -9 68 -8 56 3 62 5 65 26 2
12 -1 22 -7 22 -7 0 -11 24 -11 60 0 53 -2 60 -20 60 -16 0 -19 -8 -22 -62 -2
-50 -6 -63 -20 -66 -16 -3 -18 5 -18 62 0 65 -1 66 -26 66 l-27 0 6 -75z"/>
<path d="M2370 1964 c0 -94 7 -103 80 -101 60 1 84 17 60 41 -5 5 -10 36 -10
68 0 51 -2 58 -20 58 -18 0 -20 -7 -20 -54 0 -35 -5 -58 -15 -66 -24 -20 -35
-2 -35 61 0 52 -2 59 -20 59 -18 0 -20 -7 -20 -66z"/>
<path d="M2543 2014 c-3 -8 -1 -20 6 -27 6 -6 11 -37 11 -69 0 -55 1 -58 25
-58 23 0 24 4 27 63 2 47 7 62 18 62 8 0 16 10 18 23 4 25 -24 31 -47 10 -11
-10 -14 -10 -18 0 -7 17 -32 15 -40 -4z"/>
<path d="M2696 2008 c-21 -30 -21 -111 0 -132 8 -9 27 -16 40 -16 19 0 25 -5
22 -17 -3 -13 -13 -18 -36 -16 -26 1 -32 -3 -30 -15 2 -12 15 -18 43 -20 66
-4 70 3 70 125 l0 108 -47 3 c-39 3 -49 -1 -62 -20z m64 -63 c0 -46 -7 -54
-28 -33 -22 22 -8 78 20 78 4 0 8 -20 8 -45z"/>
<path d="M2862 2018 c3 -7 17 -14 31 -16 37 -4 34 -26 -5 -37 -41 -13 -55 -36
-42 -72 9 -27 13 -28 73 -29 64 -1 87 14 62 39 -6 6 -11 26 -11 43 0 18 -4 44
-10 58 -8 23 -15 26 -56 26 -32 0 -44 -4 -42 -12z m58 -97 c0 -11 -4 -22 -9
-25 -12 -8 -34 21 -26 34 11 17 35 11 35 -9z"/>
<path d="M3032 2018 c-20 -20 -13 -49 20 -79 22 -21 28 -33 21 -40 -8 -8 -17
-7 -33 1 -20 10 -21 9 -18 -12 2 -19 10 -24 41 -26 47 -4 67 11 67 50 0 22 -7
33 -30 46 -37 21 -40 46 -6 40 24 -5 42 13 29 26 -11 11 -79 6 -91 -6z"/>
</g>
</svg>
